<?xml version="1.0" encoding="UTF-8" standalone="no"?>
<!DOCTYPE svg PUBLIC "-//W3C//DTD SVG 1.1//EN" "http://www.w3.org/Graphics/SVG/1.1/DTD/svg11.dtd">
<svg width="100%" height="100%" viewBox="0 0 3234 510" version="1.1" xmlns="http://www.w3.org/2000/svg" xmlns:xlink="http://www.w3.org/1999/xlink" xml:space="preserve" xmlns:serif="http://www.serif.com/" style="fill-rule:evenodd;clip-rule:evenodd;stroke-linejoin:round;stroke-miterlimit:2;">
    <g transform="matrix(1,0,0,1,-236.876,-141.436)">
        <g transform="matrix(1,0,0,0.954582,0,26.3346)">
            <path d="M344.943,148.949L290.07,148.949C282.596,148.949 276.528,142.593 276.528,134.763C276.528,126.934 282.596,120.577 290.07,120.577L871.797,120.577L871.797,148.949L416.027,148.949L416.027,144.476C416.027,141.875 414.274,139.636 411.84,139.126L409.442,138.623C407.623,138.242 405.748,138.903 404.519,140.359C401.349,144.113 398.128,146.826 394.178,148.949L366.792,148.949L366.792,144.476C366.792,141.875 365.04,139.636 362.605,139.126L360.207,138.623C358.389,138.242 356.514,138.903 355.285,140.359C352.115,144.113 348.893,146.826 344.943,148.949ZM416.029,247.008L509.718,247.008L509.718,275.38L304.604,275.38C297.13,275.38 291.063,269.024 291.063,261.194C291.063,253.365 297.13,247.008 304.604,247.008L339.268,247.008C339.237,248.678 339.015,250.373 338.903,251.136C338.686,251.189 338.435,251.246 338.23,251.284C338.203,251.289 329.121,252.791 329.121,252.791C326.589,253.21 324.725,255.495 324.725,258.18L324.725,261.194C324.725,264.208 327.056,266.651 329.933,266.651L374.851,266.651C375.621,266.651 376.352,266.476 377.009,266.162C377.667,266.476 378.398,266.651 379.167,266.651L424.086,266.651C426.963,266.651 429.294,264.208 429.294,261.194L429.294,258.18C429.294,255.526 427.471,253.257 424.974,252.804L416.717,251.307C416.576,251.278 416.42,251.241 416.267,251.204C416.181,250.292 416.048,248.645 416.029,247.008ZM366.794,247.008L388.502,247.008C388.471,248.678 388.25,250.373 388.137,251.136C387.92,251.189 387.67,251.246 387.465,251.284C387.438,251.289 378.355,252.791 378.355,252.791C377.881,252.869 377.429,253.013 377.009,253.214C376.612,253.024 376.187,252.885 375.74,252.804L367.482,251.307C367.342,251.278 367.186,251.241 367.033,251.204C366.947,250.292 366.813,248.645 366.794,247.008ZM349.686,247.008L356.376,247.008C356.4,251.043 356.804,253.793 357.447,255.738L348.396,255.738C349.155,253.75 349.656,250.982 349.686,247.008ZM398.921,247.008L405.611,247.008C405.635,251.043 406.038,253.793 406.681,255.738L397.63,255.738C398.39,253.75 398.891,250.982 398.921,247.008ZM509.718,401.811L250.418,401.811C242.944,401.811 236.876,395.455 236.876,387.625C236.876,379.796 242.944,373.439 250.418,373.439L509.718,373.439L509.718,401.811ZM608.858,247.008L871.797,247.008L871.797,275.38L859.004,275.38C853.552,273.309 848.054,272.3 842.539,272.3C834.615,272.3 827.203,273.334 820.296,275.38L619.43,275.38C618.377,265.181 614.892,255.688 608.858,247.008ZM978.562,120.577L3456.48,120.577C3463.95,120.577 3470.02,126.934 3470.02,134.763C3470.02,142.593 3463.95,148.949 3456.48,148.949L965.69,148.949C971.656,138.914 975.918,129.445 978.562,120.577ZM933.902,148.949L904.43,148.949L904.408,120.577L941.881,120.577C941.277,126.055 938.732,132.384 934.671,139.718C933.113,142.533 932.84,145.918 933.902,148.949ZM904.508,247.008L3456.48,247.008C3463.95,247.008 3470.02,253.365 3470.02,261.194C3470.02,269.024 3463.95,275.38 3456.48,275.38L904.53,275.38L904.508,247.008ZM874.874,373.439L3456.48,373.439C3463.95,373.439 3470.02,379.796 3470.02,387.625C3470.02,395.455 3463.95,401.811 3456.48,401.811L797.34,401.811C793.645,391.4 786.968,381.896 777.156,373.439L801.442,373.439C811.05,378.651 823.579,381.492 839.187,381.492C853.182,381.492 865.054,378.719 874.874,373.439ZM723.413,499.87L3456.48,499.87C3463.95,499.87 3470.02,506.227 3470.02,514.056C3470.02,521.886 3463.95,528.242 3456.48,528.242L723.435,528.242L723.413,499.87ZM723.512,626.301L3456.48,626.301C3463.95,626.301 3470.02,632.658 3470.02,640.487C3470.02,648.317 3463.95,654.673 3456.48,654.673L722.982,654.673C723.314,651.25 723.512,646.319 723.512,639.877L723.512,626.301ZM595.894,654.673L290.07,654.673C282.596,654.673 276.528,648.317 276.528,640.487C276.528,632.658 282.596,626.301 290.07,626.301L601.958,626.301C597.791,633.536 595.762,641.477 595.762,650.061C595.762,651.633 595.807,653.171 595.894,654.673ZM690.758,528.242L538.421,528.242C539.849,524.752 540.893,521.087 541.559,517.253C542.109,514.088 542.462,508.296 542.473,499.87L690.758,499.87L690.758,528.242ZM417.18,528.242L329.613,528.242C322.139,528.242 316.072,521.886 316.072,514.056C316.072,506.227 322.139,499.87 329.613,499.87L415.666,499.87C415.035,503.036 414.723,506.304 414.723,509.671C414.723,516.522 415.563,522.706 417.18,528.242ZM542.385,373.439L690.758,373.439L690.758,401.811L542.407,401.811L542.385,373.439ZM546.435,247.008L579.434,247.008C590.088,255.059 596.539,264.39 598.387,275.38L590.691,275.38C586.209,270.53 580.166,266.148 572.431,262.346C572.381,262.322 572.332,262.298 572.283,262.274C562.183,257.51 553.556,252.44 546.435,247.008ZM774.112,401.811L751.536,401.811C738.393,395.454 727.837,388.554 719.944,380.982C717.649,378.781 714.581,377.806 711.591,378.206L711.591,373.439L735.205,373.439C735.891,373.763 736.592,374.085 737.309,374.407C737.351,374.425 737.393,374.444 737.435,374.462C754.957,382.035 767.378,390.967 774.112,401.811ZM701.924,654.673L616.78,654.673C616.656,653.192 616.596,651.654 616.596,650.061C616.596,641.244 620.86,633.912 628.746,627.688C629.352,627.21 629.967,626.747 630.59,626.301L683.082,626.301C686.472,629.223 689.839,632.803 693.209,636.992C695.562,639.918 699.162,641.297 702.678,640.759C702.666,647.014 702.518,651.341 702.102,653.734C702.048,654.05 701.988,654.363 701.924,654.673ZM513.769,528.242L439.889,528.242C436.871,523.349 435.556,517.117 435.556,509.671C435.556,506.179 436.225,502.92 437.523,499.87L516.694,499.87C518.265,500.446 519.961,500.626 521.639,500.369C521.626,506.624 521.479,510.951 521.063,513.344C520.083,518.983 517.616,523.923 513.769,528.242Z" style="fill:white;"/>
        </g>
    </g>
</svg>
