<?xml version="1.0" encoding="UTF-8" standalone="no"?>
<!DOCTYPE svg PUBLIC "-//W3C//DTD SVG 1.1//EN" "http://www.w3.org/Graphics/SVG/1.1/DTD/svg11.dtd">
<svg width="100%" height="100%" viewBox="0 0 3600 900" version="1.1" xmlns="http://www.w3.org/2000/svg" xmlns:xlink="http://www.w3.org/1999/xlink" xml:space="preserve" xmlns:serif="http://www.serif.com/" style="fill-rule:evenodd;clip-rule:evenodd;stroke-linejoin:round;stroke-miterlimit:2;">
    <g transform="matrix(0.713526,0,0,0.567793,-126.821,171.163)">
        <g transform="matrix(595.485,0,0,595.485,142.481,625.422)">
            <path d="M0.641,0.241C0.612,0.251 0.583,0.255 0.554,0.255C0.524,0.255 0.496,0.251 0.468,0.241C0.441,0.232 0.415,0.219 0.391,0.201C0.367,0.184 0.345,0.164 0.325,0.14C0.306,0.116 0.289,0.089 0.275,0.06C0.261,0.03 0.25,-0.001 0.242,-0.035C0.235,-0.069 0.231,-0.104 0.231,-0.14C0.231,-0.187 0.238,-0.229 0.252,-0.266C0.266,-0.304 0.285,-0.339 0.309,-0.372C0.334,-0.405 0.362,-0.437 0.395,-0.468C0.427,-0.499 0.462,-0.531 0.499,-0.564C0.489,-0.615 0.482,-0.659 0.479,-0.696C0.476,-0.732 0.475,-0.763 0.475,-0.788C0.475,-0.841 0.479,-0.887 0.488,-0.926C0.497,-0.965 0.507,-0.998 0.52,-1.023C0.532,-1.048 0.545,-1.067 0.559,-1.08C0.573,-1.092 0.585,-1.098 0.595,-1.098C0.606,-1.098 0.616,-1.095 0.626,-1.087C0.636,-1.08 0.645,-1.071 0.654,-1.059C0.663,-1.047 0.671,-1.033 0.678,-1.017C0.685,-1.001 0.692,-0.985 0.697,-0.969C0.702,-0.952 0.707,-0.935 0.71,-0.918C0.713,-0.902 0.714,-0.886 0.714,-0.872C0.714,-0.816 0.71,-0.766 0.702,-0.722C0.693,-0.678 0.682,-0.638 0.667,-0.603C0.653,-0.568 0.636,-0.536 0.617,-0.509C0.597,-0.481 0.577,-0.455 0.556,-0.432L0.588,-0.253C0.592,-0.254 0.597,-0.254 0.602,-0.254C0.607,-0.255 0.611,-0.255 0.616,-0.255C0.646,-0.255 0.675,-0.249 0.701,-0.238C0.728,-0.226 0.751,-0.21 0.771,-0.191C0.791,-0.171 0.806,-0.148 0.818,-0.121C0.829,-0.095 0.835,-0.066 0.835,-0.036C0.835,-0.007 0.831,0.021 0.823,0.048C0.815,0.075 0.804,0.1 0.79,0.123C0.775,0.145 0.758,0.166 0.738,0.184C0.718,0.202 0.696,0.217 0.672,0.229L0.707,0.421C0.707,0.425 0.708,0.43 0.708,0.435C0.709,0.44 0.709,0.445 0.709,0.451C0.71,0.456 0.71,0.461 0.71,0.465C0.71,0.47 0.71,0.474 0.71,0.477C0.71,0.5 0.706,0.522 0.697,0.543C0.688,0.563 0.676,0.581 0.661,0.597C0.645,0.612 0.627,0.625 0.606,0.634C0.586,0.642 0.563,0.647 0.54,0.647C0.515,0.647 0.492,0.644 0.47,0.638C0.448,0.632 0.428,0.623 0.411,0.611C0.395,0.6 0.381,0.585 0.371,0.568C0.361,0.551 0.356,0.531 0.356,0.509C0.356,0.496 0.359,0.484 0.364,0.473C0.369,0.461 0.375,0.451 0.384,0.443C0.392,0.434 0.402,0.427 0.413,0.422C0.425,0.417 0.437,0.415 0.45,0.415C0.463,0.415 0.475,0.417 0.486,0.422C0.498,0.427 0.508,0.434 0.516,0.443C0.525,0.451 0.532,0.461 0.537,0.473C0.542,0.484 0.544,0.496 0.544,0.509C0.544,0.52 0.543,0.528 0.542,0.536C0.541,0.543 0.539,0.549 0.537,0.554C0.534,0.559 0.532,0.563 0.529,0.566C0.525,0.569 0.522,0.572 0.519,0.575C0.514,0.579 0.511,0.583 0.509,0.584C0.506,0.586 0.505,0.59 0.505,0.594C0.505,0.6 0.507,0.604 0.512,0.608C0.516,0.612 0.525,0.614 0.54,0.614C0.559,0.614 0.577,0.61 0.594,0.603C0.61,0.596 0.625,0.586 0.637,0.573C0.65,0.561 0.659,0.546 0.667,0.53C0.674,0.513 0.677,0.495 0.677,0.477C0.677,0.474 0.677,0.471 0.677,0.466C0.677,0.462 0.677,0.457 0.676,0.452C0.676,0.447 0.676,0.442 0.675,0.438C0.675,0.433 0.674,0.43 0.674,0.427L0.641,0.241ZM0.528,-0.591C0.549,-0.61 0.569,-0.63 0.587,-0.65C0.605,-0.67 0.621,-0.691 0.635,-0.713C0.648,-0.735 0.659,-0.758 0.667,-0.782C0.675,-0.806 0.679,-0.832 0.679,-0.859C0.679,-0.871 0.677,-0.883 0.674,-0.893C0.671,-0.903 0.666,-0.912 0.66,-0.919C0.655,-0.927 0.648,-0.932 0.641,-0.936C0.633,-0.94 0.625,-0.942 0.616,-0.942C0.611,-0.942 0.605,-0.941 0.598,-0.939C0.59,-0.937 0.583,-0.933 0.576,-0.928C0.569,-0.923 0.561,-0.916 0.554,-0.906C0.547,-0.897 0.541,-0.885 0.535,-0.87C0.529,-0.855 0.525,-0.837 0.521,-0.815C0.518,-0.794 0.516,-0.769 0.516,-0.739C0.516,-0.719 0.517,-0.696 0.519,-0.672C0.521,-0.647 0.524,-0.62 0.528,-0.591ZM0.573,-0.145C0.556,-0.14 0.541,-0.133 0.528,-0.124C0.514,-0.115 0.502,-0.103 0.492,-0.09C0.482,-0.077 0.474,-0.062 0.469,-0.046C0.463,-0.03 0.46,-0.013 0.46,0.005C0.46,0.021 0.463,0.036 0.469,0.05C0.475,0.064 0.483,0.076 0.494,0.086C0.504,0.097 0.516,0.105 0.53,0.111C0.544,0.117 0.559,0.12 0.575,0.12L0.575,0.141C0.55,0.141 0.527,0.136 0.506,0.127C0.484,0.118 0.466,0.105 0.449,0.089C0.433,0.073 0.421,0.054 0.411,0.033C0.402,0.011 0.397,-0.012 0.397,-0.036C0.397,-0.061 0.401,-0.085 0.409,-0.107C0.417,-0.13 0.428,-0.15 0.442,-0.169C0.456,-0.187 0.473,-0.203 0.492,-0.216C0.511,-0.23 0.532,-0.24 0.555,-0.246L0.527,-0.402C0.509,-0.384 0.491,-0.366 0.472,-0.349C0.454,-0.332 0.436,-0.315 0.419,-0.298C0.402,-0.281 0.386,-0.263 0.372,-0.245C0.357,-0.226 0.344,-0.207 0.333,-0.185C0.322,-0.164 0.314,-0.141 0.308,-0.115C0.301,-0.09 0.298,-0.062 0.298,-0.031C0.298,0.004 0.305,0.037 0.318,0.068C0.332,0.099 0.35,0.126 0.373,0.149C0.397,0.173 0.424,0.191 0.455,0.204C0.486,0.217 0.519,0.224 0.554,0.224C0.581,0.224 0.608,0.219 0.635,0.208L0.573,-0.145ZM0.605,-0.151L0.666,0.193C0.682,0.183 0.697,0.172 0.71,0.159C0.723,0.145 0.734,0.131 0.743,0.115C0.753,0.098 0.76,0.081 0.765,0.063C0.77,0.044 0.772,0.025 0.772,0.005C0.772,-0.016 0.768,-0.036 0.76,-0.055C0.752,-0.074 0.741,-0.091 0.727,-0.105C0.713,-0.119 0.696,-0.131 0.677,-0.139C0.658,-0.147 0.638,-0.151 0.616,-0.151L0.605,-0.151Z" style="fill:white;fill-rule:nonzero;"/>
        </g>
    </g>
    <g transform="matrix(1,0,0,1,-61.1761,8.52651e-14)">
        <g transform="matrix(159.853,0,0,159.853,385.994,275.666)">
            <path d="M0.032,-0L0.313,-0L0.313,-0.018L0.261,-0.027C0.235,-0.032 0.23,-0.037 0.23,-0.087L0.23,-0.697L0.215,-0.7C0.169,-0.648 0.122,-0.625 0.03,-0.606L0.03,-0.588L0.123,-0.588L0.123,-0.087C0.123,-0.037 0.113,-0.031 0.089,-0.027L0.032,-0.018L0.032,-0Z" style="fill:white;fill-rule:nonzero;"/>
        </g>
        <g transform="matrix(159.853,0,0,159.853,435.228,275.666)">
            <path d="M0.032,-0L0.313,-0L0.313,-0.018L0.261,-0.027C0.235,-0.032 0.23,-0.037 0.23,-0.087L0.23,-0.697L0.215,-0.7C0.169,-0.648 0.122,-0.625 0.03,-0.606L0.03,-0.588L0.123,-0.588L0.123,-0.087C0.123,-0.037 0.113,-0.031 0.089,-0.027L0.032,-0.018L0.032,-0Z" style="fill:white;fill-rule:nonzero;"/>
        </g>
    </g>
    <g id="notes">
        <g transform="matrix(2.3864,0,0,3.27759,-638.907,-1124.5)">
            <g transform="matrix(159.853,0,0,159.853,444.24,517.043)">
                <path d="M0.433,-0.421L0.42,-0.441C0.436,-0.46 0.443,-0.477 0.443,-0.49C0.443,-0.511 0.424,-0.529 0.385,-0.542C0.345,-0.555 0.313,-0.569 0.29,-0.585L0.291,-0.153L0.291,-0.128C0.291,-0.114 0.29,-0.104 0.289,-0.099C0.284,-0.08 0.269,-0.063 0.244,-0.05C0.219,-0.037 0.187,-0.03 0.146,-0.03C0.056,-0.03 0.01,-0.057 0.01,-0.109C0.01,-0.132 0.024,-0.15 0.053,-0.166C0.081,-0.182 0.116,-0.189 0.155,-0.189C0.191,-0.189 0.226,-0.175 0.259,-0.146L0.259,-0.694L0.289,-0.695C0.297,-0.675 0.305,-0.661 0.314,-0.653C0.323,-0.646 0.34,-0.638 0.365,-0.63C0.45,-0.604 0.493,-0.569 0.493,-0.524C0.493,-0.495 0.473,-0.46 0.433,-0.421Z" style="fill:white;fill-rule:nonzero;"/>
            </g>
        </g>
        <g transform="matrix(2.3864,0,0,3.27759,-457.868,-990.482)">
            <g transform="matrix(159.853,0,0,159.853,444.24,517.043)">
                <path d="M0.433,-0.421L0.42,-0.441C0.436,-0.46 0.443,-0.477 0.443,-0.49C0.443,-0.511 0.424,-0.529 0.385,-0.542C0.345,-0.555 0.313,-0.569 0.29,-0.585L0.291,-0.153L0.291,-0.128C0.291,-0.114 0.29,-0.104 0.289,-0.099C0.284,-0.08 0.269,-0.063 0.244,-0.05C0.219,-0.037 0.187,-0.03 0.146,-0.03C0.056,-0.03 0.01,-0.057 0.01,-0.109C0.01,-0.132 0.024,-0.15 0.053,-0.166C0.081,-0.182 0.116,-0.189 0.155,-0.189C0.191,-0.189 0.226,-0.175 0.259,-0.146L0.259,-0.694L0.289,-0.695C0.297,-0.675 0.305,-0.661 0.314,-0.653C0.323,-0.646 0.34,-0.638 0.365,-0.63C0.45,-0.604 0.493,-0.569 0.493,-0.524C0.493,-0.495 0.473,-0.46 0.433,-0.421Z" style="fill:white;fill-rule:nonzero;"/>
            </g>
        </g>
        <g transform="matrix(2.3864,0,0,3.27759,-276.828,-1298.71)">
            <g transform="matrix(159.853,0,0,159.853,444.24,517.043)">
                <path d="M0.433,-0.421L0.42,-0.441C0.436,-0.46 0.443,-0.477 0.443,-0.49C0.443,-0.511 0.424,-0.529 0.385,-0.542C0.345,-0.555 0.313,-0.569 0.29,-0.585L0.291,-0.153L0.291,-0.128C0.291,-0.114 0.29,-0.104 0.289,-0.099C0.284,-0.08 0.269,-0.063 0.244,-0.05C0.219,-0.037 0.187,-0.03 0.146,-0.03C0.056,-0.03 0.01,-0.057 0.01,-0.109C0.01,-0.132 0.024,-0.15 0.053,-0.166C0.081,-0.182 0.116,-0.189 0.155,-0.189C0.191,-0.189 0.226,-0.175 0.259,-0.146L0.259,-0.694L0.289,-0.695C0.297,-0.675 0.305,-0.661 0.314,-0.653C0.323,-0.646 0.34,-0.638 0.365,-0.63C0.45,-0.604 0.493,-0.569 0.493,-0.524C0.493,-0.495 0.473,-0.46 0.433,-0.421Z" style="fill:white;fill-rule:nonzero;"/>
            </g>
        </g>
    </g>
    <g transform="matrix(1,0,0,0.954582,0,26.3346)">
        <path d="M344.943,148.949L290.07,148.949C282.596,148.949 276.528,142.593 276.528,134.763C276.528,126.934 282.596,120.577 290.07,120.577L871.797,120.577L871.797,148.949L416.027,148.949L416.027,144.476C416.027,141.875 414.274,139.636 411.84,139.126L409.442,138.623C407.623,138.242 405.748,138.903 404.519,140.359C401.349,144.113 398.128,146.826 394.178,148.949L366.792,148.949L366.792,144.476C366.792,141.875 365.04,139.636 362.605,139.126L360.207,138.623C358.389,138.242 356.514,138.903 355.285,140.359C352.115,144.113 348.893,146.826 344.943,148.949ZM416.029,247.008L509.718,247.008L509.718,275.38L304.604,275.38C297.13,275.38 291.063,269.024 291.063,261.194C291.063,253.365 297.13,247.008 304.604,247.008L339.268,247.008C339.237,248.678 339.015,250.373 338.903,251.136C338.686,251.189 338.435,251.246 338.23,251.284C338.203,251.289 329.121,252.791 329.121,252.791C326.589,253.21 324.725,255.495 324.725,258.18L324.725,261.194C324.725,264.208 327.056,266.651 329.933,266.651L374.851,266.651C375.621,266.651 376.352,266.476 377.009,266.162C377.667,266.476 378.398,266.651 379.167,266.651L424.086,266.651C426.963,266.651 429.294,264.208 429.294,261.194L429.294,258.18C429.294,255.526 427.471,253.257 424.974,252.804L416.717,251.307C416.576,251.278 416.42,251.241 416.267,251.204C416.181,250.292 416.048,248.645 416.029,247.008ZM366.794,247.008L388.502,247.008C388.471,248.678 388.25,250.373 388.137,251.136C387.92,251.189 387.67,251.246 387.465,251.284C387.438,251.289 378.355,252.791 378.355,252.791C377.881,252.869 377.429,253.013 377.009,253.214C376.612,253.024 376.187,252.885 375.74,252.804L367.482,251.307C367.342,251.278 367.186,251.241 367.033,251.204C366.947,250.292 366.813,248.645 366.794,247.008ZM349.686,247.008L356.376,247.008C356.4,251.043 356.804,253.793 357.447,255.738L348.396,255.738C349.155,253.75 349.656,250.982 349.686,247.008ZM398.921,247.008L405.611,247.008C405.635,251.043 406.038,253.793 406.681,255.738L397.63,255.738C398.39,253.75 398.891,250.982 398.921,247.008ZM509.718,401.811L250.418,401.811C242.944,401.811 236.876,395.455 236.876,387.625C236.876,379.796 242.944,373.439 250.418,373.439L509.718,373.439L509.718,401.811ZM608.858,247.008L871.797,247.008L871.797,275.38L859.004,275.38C853.552,273.309 848.054,272.3 842.539,272.3C834.615,272.3 827.203,273.334 820.296,275.38L619.43,275.38C618.377,265.181 614.892,255.688 608.858,247.008ZM978.562,120.577L3456.48,120.577C3463.95,120.577 3470.02,126.934 3470.02,134.763C3470.02,142.593 3463.95,148.949 3456.48,148.949L965.69,148.949C971.656,138.914 975.918,129.445 978.562,120.577ZM933.902,148.949L904.43,148.949L904.408,120.577L941.881,120.577C941.277,126.055 938.732,132.384 934.671,139.718C933.113,142.533 932.84,145.918 933.902,148.949ZM904.508,247.008L3456.48,247.008C3463.95,247.008 3470.02,253.365 3470.02,261.194C3470.02,269.024 3463.95,275.38 3456.48,275.38L904.53,275.38L904.508,247.008ZM874.874,373.439L3456.48,373.439C3463.95,373.439 3470.02,379.796 3470.02,387.625C3470.02,395.455 3463.95,401.811 3456.48,401.811L797.34,401.811C793.645,391.4 786.968,381.896 777.156,373.439L801.442,373.439C811.05,378.651 823.579,381.492 839.187,381.492C853.182,381.492 865.054,378.719 874.874,373.439ZM723.413,499.87L3456.48,499.87C3463.95,499.87 3470.02,506.227 3470.02,514.056C3470.02,521.886 3463.95,528.242 3456.48,528.242L723.435,528.242L723.413,499.87ZM723.512,626.301L3456.48,626.301C3463.95,626.301 3470.02,632.658 3470.02,640.487C3470.02,648.317 3463.95,654.673 3456.48,654.673L722.982,654.673C723.314,651.25 723.512,646.319 723.512,639.877L723.512,626.301ZM595.894,654.673L290.07,654.673C282.596,654.673 276.528,648.317 276.528,640.487C276.528,632.658 282.596,626.301 290.07,626.301L601.958,626.301C597.791,633.536 595.762,641.477 595.762,650.061C595.762,651.633 595.807,653.171 595.894,654.673ZM690.758,528.242L538.421,528.242C539.849,524.752 540.893,521.087 541.559,517.253C542.109,514.088 542.462,508.296 542.473,499.87L690.758,499.87L690.758,528.242ZM417.18,528.242L329.613,528.242C322.139,528.242 316.072,521.886 316.072,514.056C316.072,506.227 322.139,499.87 329.613,499.87L415.666,499.87C415.035,503.036 414.723,506.304 414.723,509.671C414.723,516.522 415.563,522.706 417.18,528.242ZM542.385,373.439L690.758,373.439L690.758,401.811L542.407,401.811L542.385,373.439ZM546.435,247.008L579.434,247.008C590.088,255.059 596.539,264.39 598.387,275.38L590.691,275.38C586.209,270.53 580.166,266.148 572.431,262.346C572.381,262.322 572.332,262.298 572.283,262.274C562.183,257.51 553.556,252.44 546.435,247.008ZM774.112,401.811L751.536,401.811C738.393,395.454 727.837,388.554 719.944,380.982C717.649,378.781 714.581,377.806 711.591,378.206L711.591,373.439L735.205,373.439C735.891,373.763 736.592,374.085 737.309,374.407C737.351,374.425 737.393,374.444 737.435,374.462C754.957,382.035 767.378,390.967 774.112,401.811ZM701.924,654.673L616.78,654.673C616.656,653.192 616.596,651.654 616.596,650.061C616.596,641.244 620.86,633.912 628.746,627.688C629.352,627.21 629.967,626.747 630.59,626.301L683.082,626.301C686.472,629.223 689.839,632.803 693.209,636.992C695.562,639.918 699.162,641.297 702.678,640.759C702.666,647.014 702.518,651.341 702.102,653.734C702.048,654.05 701.988,654.363 701.924,654.673ZM513.769,528.242L439.889,528.242C436.871,523.349 435.556,517.117 435.556,509.671C435.556,506.179 436.225,502.92 437.523,499.87L516.694,499.87C518.265,500.446 519.961,500.626 521.639,500.369C521.626,506.624 521.479,510.951 521.063,513.344C520.083,518.983 517.616,523.923 513.769,528.242Z" style="fill:white;"/>
    </g>
    <g transform="matrix(1,0,0,1,-61.1761,8.52651e-14)">
        <path d="M391.109,275.666L391.109,272.789L400.221,271.35C404.057,270.711 405.656,269.751 405.656,261.759L405.656,181.673L390.789,181.673L390.789,178.795C405.496,175.758 413.009,172.082 420.362,163.769L422.76,164.249L422.76,261.759C422.76,269.751 423.559,270.551 427.715,271.35L436.028,272.789L436.028,275.666L391.109,275.666ZM440.344,275.666L440.344,272.789L449.455,271.35C453.292,270.711 454.89,269.751 454.89,261.759L454.89,181.673L440.024,181.673L440.024,178.795C454.73,175.758 462.243,172.082 469.597,163.769L471.994,164.249L471.994,261.759C471.994,269.751 472.794,270.551 476.95,271.35L485.262,272.789L485.262,275.666L440.344,275.666Z" style="fill:white;"/>
    </g>
</svg>
