<?xml version="1.0" encoding="UTF-8" standalone="no"?>
<!DOCTYPE svg PUBLIC "-//W3C//DTD SVG 1.1//EN" "http://www.w3.org/Graphics/SVG/1.1/DTD/svg11.dtd">
<svg width="100%" height="100%" viewBox="0 0 900 900" version="1.1" xmlns="http://www.w3.org/2000/svg" xmlns:xlink="http://www.w3.org/1999/xlink" xml:space="preserve" xmlns:serif="http://www.serif.com/" style="fill-rule:evenodd;clip-rule:evenodd;stroke-linejoin:round;stroke-miterlimit:2;">
    <circle cx="450" cy="450" r="450"/>
    <clipPath id="_clip1">
        <circle cx="450" cy="450" r="450"/>
    </clipPath>
    <g clip-path="url(#_clip1)">
        <g transform="matrix(0.995749,0,0,0.792374,-186.969,43.5004)">
            <g transform="matrix(595.485,0,0,595.485,142.481,625.422)">
                <path d="M0.641,0.241C0.612,0.251 0.583,0.255 0.554,0.255C0.524,0.255 0.496,0.251 0.468,0.241C0.441,0.232 0.415,0.219 0.391,0.201C0.367,0.184 0.345,0.164 0.325,0.14C0.306,0.116 0.289,0.089 0.275,0.06C0.261,0.03 0.25,-0.001 0.242,-0.035C0.235,-0.069 0.231,-0.104 0.231,-0.14C0.231,-0.187 0.238,-0.229 0.252,-0.266C0.266,-0.304 0.285,-0.339 0.309,-0.372C0.334,-0.405 0.362,-0.437 0.395,-0.468C0.427,-0.499 0.462,-0.531 0.499,-0.564C0.489,-0.615 0.482,-0.659 0.479,-0.696C0.476,-0.732 0.475,-0.763 0.475,-0.788C0.475,-0.841 0.479,-0.887 0.488,-0.926C0.497,-0.965 0.507,-0.998 0.52,-1.023C0.532,-1.048 0.545,-1.067 0.559,-1.08C0.573,-1.092 0.585,-1.098 0.595,-1.098C0.606,-1.098 0.616,-1.095 0.626,-1.087C0.636,-1.08 0.645,-1.071 0.654,-1.059C0.663,-1.047 0.671,-1.033 0.678,-1.017C0.685,-1.001 0.692,-0.985 0.697,-0.969C0.702,-0.952 0.707,-0.935 0.71,-0.918C0.713,-0.902 0.714,-0.886 0.714,-0.872C0.714,-0.816 0.71,-0.766 0.702,-0.722C0.693,-0.678 0.682,-0.638 0.667,-0.603C0.653,-0.568 0.636,-0.536 0.617,-0.509C0.597,-0.481 0.577,-0.455 0.556,-0.432L0.588,-0.253C0.592,-0.254 0.597,-0.254 0.602,-0.254C0.607,-0.255 0.611,-0.255 0.616,-0.255C0.646,-0.255 0.675,-0.249 0.701,-0.238C0.728,-0.226 0.751,-0.21 0.771,-0.191C0.791,-0.171 0.806,-0.148 0.818,-0.121C0.829,-0.095 0.835,-0.066 0.835,-0.036C0.835,-0.007 0.831,0.021 0.823,0.048C0.815,0.075 0.804,0.1 0.79,0.123C0.775,0.145 0.758,0.166 0.738,0.184C0.718,0.202 0.696,0.217 0.672,0.229L0.707,0.421C0.707,0.425 0.708,0.43 0.708,0.435C0.709,0.44 0.709,0.445 0.709,0.451C0.71,0.456 0.71,0.461 0.71,0.465C0.71,0.47 0.71,0.474 0.71,0.477C0.71,0.5 0.706,0.522 0.697,0.543C0.688,0.563 0.676,0.581 0.661,0.597C0.645,0.612 0.627,0.625 0.606,0.634C0.586,0.642 0.563,0.647 0.54,0.647C0.515,0.647 0.492,0.644 0.47,0.638C0.448,0.632 0.428,0.623 0.411,0.611C0.395,0.6 0.381,0.585 0.371,0.568C0.361,0.551 0.356,0.531 0.356,0.509C0.356,0.496 0.359,0.484 0.364,0.473C0.369,0.461 0.375,0.451 0.384,0.443C0.392,0.434 0.402,0.427 0.413,0.422C0.425,0.417 0.437,0.415 0.45,0.415C0.463,0.415 0.475,0.417 0.486,0.422C0.498,0.427 0.508,0.434 0.516,0.443C0.525,0.451 0.532,0.461 0.537,0.473C0.542,0.484 0.544,0.496 0.544,0.509C0.544,0.52 0.543,0.528 0.542,0.536C0.541,0.543 0.539,0.549 0.537,0.554C0.534,0.559 0.532,0.563 0.529,0.566C0.525,0.569 0.522,0.572 0.519,0.575C0.514,0.579 0.511,0.583 0.509,0.584C0.506,0.586 0.505,0.59 0.505,0.594C0.505,0.6 0.507,0.604 0.512,0.608C0.516,0.612 0.525,0.614 0.54,0.614C0.559,0.614 0.577,0.61 0.594,0.603C0.61,0.596 0.625,0.586 0.637,0.573C0.65,0.561 0.659,0.546 0.667,0.53C0.674,0.513 0.677,0.495 0.677,0.477C0.677,0.474 0.677,0.471 0.677,0.466C0.677,0.462 0.677,0.457 0.676,0.452C0.676,0.447 0.676,0.442 0.675,0.438C0.675,0.433 0.674,0.43 0.674,0.427L0.641,0.241ZM0.528,-0.591C0.549,-0.61 0.569,-0.63 0.587,-0.65C0.605,-0.67 0.621,-0.691 0.635,-0.713C0.648,-0.735 0.659,-0.758 0.667,-0.782C0.675,-0.806 0.679,-0.832 0.679,-0.859C0.679,-0.871 0.677,-0.883 0.674,-0.893C0.671,-0.903 0.666,-0.912 0.66,-0.919C0.655,-0.927 0.648,-0.932 0.641,-0.936C0.633,-0.94 0.625,-0.942 0.616,-0.942C0.611,-0.942 0.605,-0.941 0.598,-0.939C0.59,-0.937 0.583,-0.933 0.576,-0.928C0.569,-0.923 0.561,-0.916 0.554,-0.906C0.547,-0.897 0.541,-0.885 0.535,-0.87C0.529,-0.855 0.525,-0.837 0.521,-0.815C0.518,-0.794 0.516,-0.769 0.516,-0.739C0.516,-0.719 0.517,-0.696 0.519,-0.672C0.521,-0.647 0.524,-0.62 0.528,-0.591ZM0.573,-0.145C0.556,-0.14 0.541,-0.133 0.528,-0.124C0.514,-0.115 0.502,-0.103 0.492,-0.09C0.482,-0.077 0.474,-0.062 0.469,-0.046C0.463,-0.03 0.46,-0.013 0.46,0.005C0.46,0.021 0.463,0.036 0.469,0.05C0.475,0.064 0.483,0.076 0.494,0.086C0.504,0.097 0.516,0.105 0.53,0.111C0.544,0.117 0.559,0.12 0.575,0.12L0.575,0.141C0.55,0.141 0.527,0.136 0.506,0.127C0.484,0.118 0.466,0.105 0.449,0.089C0.433,0.073 0.421,0.054 0.411,0.033C0.402,0.011 0.397,-0.012 0.397,-0.036C0.397,-0.061 0.401,-0.085 0.409,-0.107C0.417,-0.13 0.428,-0.15 0.442,-0.169C0.456,-0.187 0.473,-0.203 0.492,-0.216C0.511,-0.23 0.532,-0.24 0.555,-0.246L0.527,-0.402C0.509,-0.384 0.491,-0.366 0.472,-0.349C0.454,-0.332 0.436,-0.315 0.419,-0.298C0.402,-0.281 0.386,-0.263 0.372,-0.245C0.357,-0.226 0.344,-0.207 0.333,-0.185C0.322,-0.164 0.314,-0.141 0.308,-0.115C0.301,-0.09 0.298,-0.062 0.298,-0.031C0.298,0.004 0.305,0.037 0.318,0.068C0.332,0.099 0.35,0.126 0.373,0.149C0.397,0.173 0.424,0.191 0.455,0.204C0.486,0.217 0.519,0.224 0.554,0.224C0.581,0.224 0.608,0.219 0.635,0.208L0.573,-0.145ZM0.605,-0.151L0.666,0.193C0.682,0.183 0.697,0.172 0.71,0.159C0.723,0.145 0.734,0.131 0.743,0.115C0.753,0.098 0.76,0.081 0.765,0.063C0.77,0.044 0.772,0.025 0.772,0.005C0.772,-0.016 0.768,-0.036 0.76,-0.055C0.752,-0.074 0.741,-0.091 0.727,-0.105C0.713,-0.119 0.696,-0.131 0.677,-0.139C0.658,-0.147 0.638,-0.151 0.616,-0.151L0.605,-0.151Z" style="fill:white;fill-rule:nonzero;"/>
            </g>
        </g>
        <g transform="matrix(1.20004,0,0,1.20004,647.41,86.6531)">
            <g transform="matrix(566.461,0,0,566.461,-194.399,488.049)">
                <path d="M0.032,-0L0.313,-0L0.313,-0.018L0.261,-0.027C0.235,-0.032 0.23,-0.037 0.23,-0.087L0.23,-0.697L0.215,-0.7C0.169,-0.648 0.122,-0.625 0.03,-0.606L0.03,-0.588L0.123,-0.588L0.123,-0.087C0.123,-0.037 0.113,-0.031 0.089,-0.027L0.032,-0.018L0.032,-0Z" style="fill:white;fill-rule:nonzero;"/>
            </g>
            <g transform="matrix(566.461,0,0,566.461,-19.9289,488.049)">
                <path d="M0.032,-0L0.313,-0L0.313,-0.018L0.261,-0.027C0.235,-0.032 0.23,-0.037 0.23,-0.087L0.23,-0.697L0.215,-0.7C0.169,-0.648 0.122,-0.625 0.03,-0.606L0.03,-0.588L0.123,-0.588L0.123,-0.087C0.123,-0.037 0.113,-0.031 0.089,-0.027L0.032,-0.018L0.032,-0Z" style="fill:white;fill-rule:nonzero;"/>
            </g>
        </g>
    </g>
</svg>
